<svg xmlns="http://www.w3.org/2000/svg">
  <defs>
    <!-- 关闭图标 -->
    <symbol id="close" viewBox="0 0 24 24">
      <path d="M19 6.41L17.59 5 12 10.59 6.41 5 5 6.41 10.59 12 5 17.59 6.41 19 12 13.41 17.59 19 19 17.59 13.41 12z"></path>
    </symbol>
    
    <!-- 向右箭头图标 -->
    <symbol id="arrow-right" viewBox="0 0 24 24">
      <path d="M12 4l-1.41 1.41L16.17 11H4v2h12.17l-5.58 5.59L12 20l8-8-8-8z"></path>
    </symbol>
    
    <!-- 搜索图标 -->
    <symbol id="search" viewBox="0 0 24 24">
      <path d="M15.5 14h-.79l-.28-.27C15.41 12.59 16 11.11 16 9.5 16 5.91 13.09 3 9.5 3S3 5.91 3 9.5 5.91 16 9.5 16c1.61 0 3.09-.59 4.23-1.57l.27.28v.79l5 4.99L20.49 19l-4.99-5zm-6 0C7.01 14 5 11.99 5 9.5S7.01 5 9.5 5 14 7.01 14 9.5 11.99 14 9.5 14z"></path>
    </symbol>
    
    <!-- 菜单图标 -->
    <symbol id="menu" viewBox="0 0 24 24">
      <path d="M3 18h18v-2H3v2zm0-5h18v-2H3v2zm0-7v2h18V6H3z"></path>
    </symbol>
  </defs>
</svg> 